<svg width="40" height="38" viewBox="0 0 40 38" fill="none" xmlns="http://www.w3.org/2000/svg">
<path d="M20.0002 37.0004C30.4937 37.0004 39.0004 28.9414 39.0004 19.0002C39.0004 9.05896 30.4937 1 20.0002 1C9.50668 1 1 9.05896 1 19.0002C1 28.9414 9.50668 37.0004 20.0002 37.0004Z" stroke="#34B2FF" stroke-width="2"/>
<path d="M35.0349 35.7221C37.1673 35.7221 38.8959 33.9934 38.8959 31.861C38.8959 29.7286 37.1673 28 35.0349 28C32.9025 28 31.1738 29.7286 31.1738 31.861C31.1738 33.9934 32.9025 35.7221 35.0349 35.7221Z" fill="white"/>
<path d="M10.2646 32.1134C10.6258 30.0118 9.21506 28.0153 7.11349 27.654C5.01192 27.2928 3.0154 28.7036 2.65413 30.8051C2.29286 32.9067 3.70366 34.9032 5.80523 35.2645C7.90679 35.6257 9.90332 34.215 10.2646 32.1134Z" fill="white"/>
<path d="M10.5289 7.04459C10.8696 4.9396 9.43943 2.95694 7.33444 2.61619C5.22945 2.27545 3.24678 3.70565 2.90604 5.81064C2.56529 7.91564 3.9955 9.8983 6.10049 10.239C8.20548 10.5798 10.1881 9.14959 10.5289 7.04459Z" fill="white"/>
<path d="M33.0349 9.72208C35.1673 9.72208 36.8959 7.99343 36.8959 5.86104C36.8959 3.72865 35.1673 2 33.0349 2C30.9025 2 29.1738 3.72865 29.1738 5.86104C29.1738 7.99343 30.9025 9.72208 33.0349 9.72208Z" fill="white"/>
<path d="M15.7102 8.74025L9.53322 14.7355V23.1693L15.7102 29.1646H24.4904L30.6674 23.1693L30.6674 14.7356L24.4904 8.74025H15.7102ZM15.1019 7.24023H25.0986L32.1674 14.1011L32.1674 23.8038L25.0986 30.6646H15.1019L8.0332 23.8038V14.1011L15.1019 7.24023Z" fill="#34B2FF"/>
<path d="M31.3577 15.6821C31.9155 15.6821 32.3677 15.2299 32.3677 14.6721C32.3677 14.1143 31.9155 13.6621 31.3577 13.6621C30.7999 13.6621 30.3477 14.1143 30.3477 14.6721C30.3477 15.2299 30.7999 15.6821 31.3577 15.6821Z" fill="white"/>
<path d="M9.4842 14.6447C9.5787 14.0949 9.20965 13.5726 8.6599 13.4781C8.11015 13.3836 7.58788 13.7527 7.49338 14.3024C7.39888 14.8522 7.76793 15.3745 8.31768 15.469C8.86743 15.5635 9.3897 15.1944 9.4842 14.6447Z" fill="white"/>
<path d="M9.4842 23.8732C9.5787 23.3234 9.20965 22.8012 8.6599 22.7067C8.11015 22.6122 7.58788 22.9812 7.49338 23.531C7.39888 24.0807 7.76793 24.603 8.31768 24.6975C8.86743 24.792 9.3897 24.4229 9.4842 23.8732Z" fill="white"/>
<path d="M32.199 23.8732C32.2935 23.3234 31.9245 22.8012 31.3747 22.7067C30.825 22.6122 30.3027 22.9812 30.2082 23.531C30.1137 24.0807 30.4828 24.603 31.0325 24.6975C31.5823 24.792 32.1045 24.4229 32.199 23.8732Z" fill="white"/>
<path d="M25.8104 30.2619C25.9049 29.7121 25.5358 29.1898 24.9861 29.0953C24.4363 29.0008 23.9141 29.3699 23.8196 29.9196C23.725 30.4694 24.0941 30.9916 24.6438 31.0862C25.1936 31.1807 25.7159 30.8116 25.8104 30.2619Z" fill="white"/>
<path d="M15.8729 30.2619C15.9674 29.7121 15.5983 29.1898 15.0486 29.0953C14.4988 29.0008 13.9766 29.3699 13.8821 29.9196C13.7875 30.4694 14.1566 30.9916 14.7063 31.0862C15.2561 31.1807 15.7784 30.8116 15.8729 30.2619Z" fill="white"/>
<path d="M16.1359 7.7574C16.2251 7.20675 15.8509 6.68811 15.3003 6.59897C14.7496 6.50984 14.231 6.88396 14.1419 7.43461C14.0527 7.98525 14.4269 8.5039 14.9775 8.59304C15.5281 8.68217 16.0468 8.30804 16.1359 7.7574Z" fill="white"/>
<path d="M24.969 8.9917C25.5268 8.9917 25.979 8.5395 25.979 7.98169C25.979 7.42388 25.5268 6.97168 24.969 6.97168C24.4112 6.97168 23.959 7.42388 23.959 7.98169C23.959 8.5395 24.4112 8.9917 24.969 8.9917Z" fill="white"/>
<path d="M20.5001 26.0001C24.09 26.0001 27.0001 23.09 27.0001 19.5001C27.0001 15.9102 24.09 13 20.5001 13C16.9102 13 14 15.9102 14 19.5001C14 23.09 16.9102 26.0001 20.5001 26.0001Z" fill="#34B2FF"/>
</svg>
